# xmcd
#
# Track frame offsets: 
#        182
#        13800
#        27910
#        39457
#        52952
#        65590
#        78310
#        94100
#        107355
#        121135
#        133780
#        147317
#        160310
#        173195
#        186090
#        199627
#        212802
#        226292
#        240220
#        254960
#        268355
#        280660
#        293190
#        305422
#
# Disc length: 4243 seconds
#
# Revision: 2
# Processed by: cddbd v1.5.2PL0 Copyright (c) Steve Scherf et al.
# Submitted via: ExactAudioCopyFreeDBPlugin 1.0
#
DISCID=5b109118
DTITLE=Sonny Boy Williamson - Sugar Mama: The Essential Recordings Of 
DTITLE=Sony Boy Williamson
DYEAR=1995
DGENRE=Blues
TTITLE0=Good Morning Little Schoolgirl
TTITLE1=Blue Bird Blues
TTITLE2=Got The Bottle Up And Go
TTITLE3=Sugar Mama Blues
TTITLE4=Early In The Morning
TTITLE5=Black Gal Blues
TTITLE6=Decoration Blues
TTITLE7=Whiskey Headed Woman Blues
TTITLE8=Lord, Oh Lord
TTITLE9=Good Gravy
TTITLE10=T. B. Blues
TTITLE11=Tell Me Baby 
TTITLE12=I Have Been Dealing With The Devil
TTITLE13=Welfare Store Blues
TTITLE14=My Little Machine
TTITLE15=Jivin' The Blues
TTITLE16=Shotgun Blues
TTITLE17=Million Years Blues
TTITLE18=Sloppy Drunk Blues
TTITLE19=You Got To Step Back
TTITLE20=Ground Hog Blues
TTITLE21=My Black Name
TTITLE22=She Don't Love Me That Way
TTITLE23=What's Gettin' Wrong With You
EXTD=
EXTT0=
EXTT1=
EXTT2=
EXTT3=
EXTT4=
EXTT5=
EXTT6=
EXTT7=
EXTT8=
EXTT9=
EXTT10=
EXTT11=
EXTT12=
EXTT13=
EXTT14=
EXTT15=
EXTT16=
EXTT17=
EXTT18=
EXTT19=
EXTT20=
EXTT21=
EXTT22=
EXTT23=
PLAYORDER=
